<svg xmlns="http://www.w3.org/2000/svg" width="1200" height="630" viewBox="0 0 1200 630">
 <rect width="1200" height="630" fill="#fff8ea"/><path d="M0 500 C180 430 330 580 520 500 S860 420 1200 520 V630 H0Z" fill="#ff6b31" opacity=".18"/>
 <g transform="translate(810 120)" fill="#164e8a" stroke="#ff6b31" stroke-width="14"><path d="M65 270c0-125 93-205 200-205s200 80 200 205c0 80-52 150-130 150h-142C117 420 65 350 65 270Z"/><circle cx="212" cy="225" r="15" fill="#fff8ea" stroke="none"/><circle cx="318" cy="225" r="15" fill="#fff8ea" stroke="none"/><path d="M198 305q68 46 136 0" fill="none" stroke="#fff8ea" stroke-width="14" stroke-linecap="round"/><path d="M150 420v70m70-70v70m70-70v70m70-70v70" stroke="#164e8a"/><path d="M255 125v-70" stroke="#ff6b31" stroke-linecap="round"/></g>
 <text x="80" y="120" font-family="Arial,sans-serif" font-size="28" letter-spacing="5" fill="#ff6b31">WALRUS SESSIONS 7</text><text x="80" y="250" font-family="Arial,sans-serif" font-size="78" font-weight="700" fill="#164e8a">Memory Firewall</text><text x="80" y="325" font-family="Arial,sans-serif" font-size="33" fill="#164e8a">Recalled prose never authorizes a tool action.</text><text x="80" y="520" font-family="Arial,sans-serif" font-size="24" fill="#ff6b31">Sentinel Wally · DETERMINISTIC AGENT WORKFLOW</text></svg>